<svg width="90" height="90" viewBox="0 0 90 90" fill="none" xmlns="http://www.w3.org/2000/svg">
<path d="M80.7232 44.8861C80.7232 47.0506 78.394 47.2785 75.352 47.2785H46.7055V75.735C46.7055 78.8354 46.7055 81 44.0199 81C41.3343 81 41.3343 78.8354 41.3343 75.735V47.2785H14.2322C11.1902 47.2785 8.72324 47.0506 8.72324 44.8861C8.72324 42.7215 11.1902 42.7215 14.2322 42.7215H41.3343V14.0407C41.3343 10.9402 41.3343 9 44.0199 9C46.7055 9 46.7055 10.9402 46.7055 14.0407V42.7215H75.352C78.3992 42.7198 80.7232 42.7215 80.7232 44.8861Z" fill="black"/>
</svg>
